<?xml version="1.0"?>
<svg xmlns="http://www.w3.org/2000/svg" viewBox="0 0 512 512" width="512" height="512"><g id="Filled_outline" data-name="Filled outline"><path d="M312,304a56,56,0,0,0,56,56h72V236.157a24.006,24.006,0,0,0-1.4-8.072L408.072,142.6A34.056,34.056,0,0,0,376,120H312Z" style="fill:#fed9bf"/><path d="M200,304a56,56,0,0,1-56,56H72V236.157a24.006,24.006,0,0,1,1.4-8.072l30.53-85.483A34.056,34.056,0,0,1,136,120h64Z" style="fill:#fed9bf"/><path d="M360,48V88l-9.32,116.56L333.76,416.05a78.184,78.184,0,0,1-155.85.39L152,112V76a20,20,0,0,1,40,0V60a20,20,0,0,1,40,0V44a20,20,0,0,1,40,0,20,20,0,0,1,40,0v4a24,24,0,0,1,48,0Z" style="fill:#fec9a3"/><path d="M238.591,227.993A24.741,24.741,0,0,0,240,219.765v-3.044a24.721,24.721,0,0,0-46.833-11.055L164,253l13.905,163.38L192,360Z" style="fill:#fec093"/><path d="M350.68,204.56,333.76,416.05a78.207,78.207,0,0,1-149.65,24.99C235.17,409.48,308.15,342.27,350.68,204.56Z" style="fill:#fec093"/><path d="M24,488,72,360l56-56,53.763-101.574a23.932,23.932,0,0,1,29.808-10.6h0a23.932,23.932,0,0,1,14,29.213L144,488Z" style="fill:#fed9bf"/><path d="M488,488,440,360l-56-56L330.237,202.426a23.932,23.932,0,0,0-29.808-10.6h0a23.932,23.932,0,0,0-14,29.213L368,488Z" style="fill:#fed9bf"/><path d="M96.883,138.547,66.336,224.09A39.9,39.9,0,0,0,64,237.543V358.551L16.508,485.191A8,8,0,0,0,24,496H144a8,8,0,0,0,7.758-6.059l18.191-72.833,0,.052c3.758,44.207,41.485,78.84,85.891,78.84,44.57,0,82.3-34.824,85.89-79.289l.048-.609,18.46,73.839A8,8,0,0,0,368,496H488a8,8,0,0,0,7.492-10.809L448,358.551V237.543a39.9,39.9,0,0,0-2.336-13.453l-30.547-85.539A40.073,40.073,0,0,0,377.445,112H366.083L368,88V48a31.985,31.985,0,0,0-54.875-22.355A27.958,27.958,0,0,0,272,24.422,27.987,27.987,0,0,0,225.352,35.4a27.991,27.991,0,0,0-40,16A27.991,27.991,0,0,0,144,76l.031,36h-9.476A40.075,40.075,0,0,0,96.883,138.547ZM364.805,128h12.64a24.066,24.066,0,0,1,22.61,15.93L430.6,229.473a23.926,23.926,0,0,1,1.4,8.07V360a8.014,8.014,0,0,0,.508,2.809L476.453,480H374.242L343.547,357.336l-46.594-132a16.71,16.71,0,0,1-.953-5.57v-3.043a16.723,16.723,0,0,1,31.68-7.481l49.164,98.336,14.312-7.156-34.6-69.2ZM160,76a12,12,0,0,1,24,0V96h16V60a12,12,0,0,1,24,0V88h16V44a12,12,0,0,1,24,0V80h16V44a12,12,0,0,1,24,0V80h16V48a16,16,0,0,1,32,0l.023,39.363-9.3,116.179-.728-1.456A32.724,32.724,0,0,0,280,216.723v3.043a32.766,32.766,0,0,0,1.859,10.89l46.383,131.285,1.363,5.454-3.824,48.039A70.562,70.562,0,0,1,255.844,480c-36.164,0-66.891-28.2-69.953-64.2l-3.974-46.612,1.63-6.525,46.594-132.016A32.685,32.685,0,0,0,232,219.766v-3.043a32.724,32.724,0,0,0-61.992-14.637l-1.985,3.969L160,112Zm-5.689,157.483-33.467,66.939,14.312,7.156,49.164-98.336A16.723,16.723,0,0,1,216,216.723v3.043a16.629,16.629,0,0,1-.953,5.562L168.242,358.059,137.75,480H35.547L79.492,362.809A8.014,8.014,0,0,0,80,360V237.543a23.926,23.926,0,0,1,1.4-8.07l30.547-85.547A24.068,24.068,0,0,1,134.555,128h10.78Z"/><path d="M239.719,192.852l.851,2.125,14.86-5.954-.852-2.121a57.029,57.029,0,0,0-64.148-34.746l3.14,15.688A41.035,41.035,0,0,1,239.719,192.852Z"/><path d="M248,223.211A71.824,71.824,0,0,0,275.2,294.4l9.594-12.8a55.744,55.744,0,0,1-21.109-55.247l.156-.777-15.688-3.156Z"/></g></svg>
