<svg height="479pt" viewBox="0 -2 479.39491 479" width="479pt" xmlns="http://www.w3.org/2000/svg"><path d="m204.425781 353.199219c-27.03125-35.53125 18.03125-60.890625 7.679688-99.53125-9.152344-34.132813-57.503907-59.125-95.910157-48.796875-36.3125 8.335937-59.652343 43.757812-52.984374 80.414062 7.015624 33.792969 65.34375 178.792969 123.382812 182.28125 25.257812 1.511719 83.199219-28.433594 17.832031-114.367187zm0 0" fill="#ffbcab"/><path d="m196.753906 466.757812c-3.339844.679688-6.753906.949219-10.160156.800782-58.078125-3.441406-116.398438-148.480469-123.359375-182.242188-6.707031-36.671875 16.628906-72.128906 52.960937-80.480468 8.683594-2.28125 17.71875-2.933594 26.640626-1.917969-3.597657.3125-7.160157.957031-10.640626 1.917969-36.332031 8.351562-59.667968 43.808593-52.960937 80.480468 6.71875 32.640625 61.441406 169.199219 117.519531 181.441406zm0 0" fill="#ff9478"/><path d="m203.265625 189.796875c12.804687-3.429687 20.402344-16.589844 16.972656-29.394531-3.429687-12.804688-16.589843-20.402344-29.394531-16.96875-12.804688 3.429687-20.402344 16.59375-16.96875 29.394531s16.589844 20.398437 29.390625 16.96875zm0 0" fill="#ffbcab"/><path d="m140.890625 173.367188c8.535156-2.289063 13.605469-11.0625 11.316406-19.597657-2.285156-8.535156-11.058593-13.601562-19.597656-11.3125-8.535156 2.285157-13.597656 11.0625-11.308594 19.597657 2.285157 8.53125 11.054688 13.59375 19.589844 11.3125zm0 0" fill="#ffbcab"/><path d="m86.804688 187.863281c8.53125-2.292969 13.59375-11.066406 11.308593-19.601562-2.289062-8.53125-11.0625-13.597657-19.597656-11.308594s-13.601563 11.0625-11.3125 19.597656c2.289063 8.535157 11.0625 13.601563 19.601563 11.3125zm0 0" fill="#ffbcab"/><path d="m46.652344 223.46875c8.53125-2.289062 13.597656-11.058594 11.308594-19.59375-2.285157-8.535156-11.054688-13.601562-19.589844-11.316406s-13.601563 11.054687-11.320313 19.589844c2.285157 8.542968 11.0625 13.609374 19.601563 11.320312zm0 0" fill="#ffbcab"/><path d="m19.882812 247.207031c-8.535156 2.285157-13.605468 11.058594-11.316406 19.59375 2.285156 8.535157 11.058594 13.601563 19.597656 11.316407 8.535157-2.289063 13.597657-11.0625 11.3125-19.601563-2.289062-8.53125-11.058593-13.59375-19.59375-11.308594zm0 0" fill="#ffbcab"/><path d="m423.394531 128.199219c-3.027343-37.15625-34.746093-65.351563-72-64-39.769531 0-80 36.652343-80 72 0 40 49.816407 50.757812 32.90625 92.070312-40.90625 99.929688 23.09375 115.929688 47.09375 107.929688 55.199219-18.402344 73.96875-173.546875 72-208zm0 0" fill="#ffbcab"/><path d="m346.914062 337.238281c-26.558593 4.878907-81.199218-14.800781-42.640624-108.960937 16.960937-41.359375-32.878907-52.078125-32.878907-92.078125 0-35.363281 40.242188-72 80-72 2.800781 0 5.601563.160156 8.320313.398437-37.121094 4.320313-72.320313 38.558594-72.320313 71.601563 0 40 49.839844 50.71875 32.878907 92.078125-31.757813 77.519531-.238282 104.558594 26.640624 108.960937zm0 0" fill="#ff9478"/><path d="m287.394531 48.199219c0 13.253906-10.746093 24-24 24-13.253906 0-24-10.746094-24-24 0-13.257813 10.746094-24 24-24 13.253907 0 24 10.742187 24 24zm0 0" fill="#ffbcab"/><path d="m335.394531 24.199219c0 8.835937-7.164062 16-16 16-8.835937 0-16-7.164063-16-16 0-8.839844 7.164063-16 16-16 8.835938 0 16 7.160156 16 16zm0 0" fill="#ffbcab"/><path d="m391.394531 24.199219c0 8.835937-7.164062 16-16 16-8.835937 0-16-7.164063-16-16 0-8.839844 7.164063-16 16-16 8.835938 0 16 7.160156 16 16zm0 0" fill="#ffbcab"/><path d="m439.394531 48.199219c0 8.835937-7.164062 16-16 16-8.835937 0-16-7.164063-16-16 0-8.839844 7.164063-16 16-16 8.835938 0 16 7.160156 16 16zm0 0" fill="#ffbcab"/><path d="m471.394531 96.199219c0 8.835937-7.164062 16-16 16-8.835937 0-16-7.164063-16-16 0-8.839844 7.164063-16 16-16 8.835938 0 16 7.160156 16 16zm0 0" fill="#ffbcab"/><g fill="#231f20"><path d="m188.625 475.621094c-.847656 0-1.6875 0-2.511719-.070313-67.175781-4.035156-125.117187-161.480469-130.71875-188.640625-8.3125-40 16.945313-78.609375 58.738281-89.808594 42.0625-11.304687 95.4375 16.230469 105.703126 54.503907 5.320312 19.871093-1.882813 36.390625-8.234376 50.960937-8.292968 19.023438-12.414062 30.527344-.796874 45.78125 38.070312 50.050782 34.941406 81.371094 25.597656 98.84375-9.769532 17.261719-27.941406 28.074219-47.777344 28.429688zm-54.207031-265.105469c-5.449219-.027344-10.878907.660156-16.152344 2.042969-32.28125 7.167968-53.125 38.570312-47.199219 71.101562 9.886719 34.949219 23.890625 68.601563 41.710938 100.25 26.402344 47.503906 52.800781 74.398438 74.3125 75.671875 14.453125.128907 27.875-7.46875 35.199218-19.929687 10.210938-19.117188 1.824219-47.34375-24.246093-81.597656-17.847657-23.457032-8.953125-43.890626-1.113281-61.855469 5.824218-13.355469 11.320312-25.96875 7.449218-40.433594-6.816406-25.441406-39.558594-45.25-69.960937-45.25zm0 0"/><path d="m196.996094 198.597656c-16.878906 0-30.863282-13.089844-31.972656-29.929687-1.113282-16.84375 11.03125-31.65625 27.761718-33.875 16.730469-2.214844 32.3125 8.929687 35.625 25.476562 3.3125 16.550781-6.785156 32.832031-23.078125 37.222657-2.71875.730468-5.523437 1.101562-8.335937 1.105468zm.078125-48c-8.027344 0-14.816407 5.949219-15.863281 13.910156-1.046876 7.960938 3.964843 15.464844 11.722656 17.542969 7.753906 2.078125 15.847656-1.910156 18.921875-9.328125 3.074219-7.417968.171875-15.964844-6.78125-19.980468-2.425781-1.410157-5.183594-2.148438-7.992188-2.144532zm0 0"/><path d="m136.753906 181.917969c-12.441406-.011719-22.8125-9.527344-23.890625-21.917969-1.078125-12.394531 7.492188-23.558594 19.746094-25.71875s24.125 5.402344 27.34375 17.421875c1.933594 7.210937.402344 14.910156-4.144531 20.832031-4.546875 5.917969-11.589844 9.386719-19.054688 9.382813zm0-32c-2.488281-.003907-4.835937 1.152343-6.351562 3.125-1.515625 1.976562-2.027344 4.542969-1.382813 6.945312.929688 3.503907 4.101563 5.941407 7.726563 5.945313 3.621094 0 6.796875-2.433594 7.730468-5.933594.9375-3.503906-.597656-7.195312-3.738281-9.003906-1.203125-.710938-2.578125-1.085938-3.976562-1.085938zm0 0"/><path d="m82.667969 196.40625c-12.441407-.011719-22.8125-9.527344-23.890625-21.921875-1.078125-12.390625 7.492187-23.554687 19.746094-25.714844 12.25-2.160156 24.121093 5.402344 27.34375 17.421875 1.929687 7.207032.398437 14.90625-4.148438 20.824219s-11.589844 9.386719-19.050781 9.382813zm0-32c-.699219 0-1.398438.089844-2.074219.269531-4.265625 1.144531-6.796875 5.53125-5.65625 9.796875s5.527344 6.800782 9.792969 5.660156c4.269531-1.140624 6.804687-5.523437 5.664062-9.792968-.933593-3.5-4.109375-5.9375-7.734375-5.933594zm0 0"/><path d="m42.515625 232.011719c-12.441406-.007813-22.8125-9.523438-23.890625-21.917969s7.492188-23.558594 19.746094-25.714844c12.25-2.160156 24.121094 5.402344 27.34375 17.417969 1.933594 7.210937.402344 14.910156-4.144532 20.832031-4.546874 5.921875-11.589843 9.390625-19.054687 9.382813zm0-32c-3.109375-.003907-5.941406 1.796875-7.257813 4.613281-1.320312 2.816406-.882812 6.140625 1.113282 8.527344 1.996094 2.382812 5.195312 3.394531 8.199218 2.589844 4.269532-1.144532 6.800782-5.53125 5.65625-9.800782-.9375-3.492187-4.097656-5.921875-7.710937-5.929687zm0 0"/><path d="m23.980469 286.667969c-12.441407-.007813-22.8125-9.523438-23.8906252-21.917969-1.0781248-12.390625 7.4921872-23.554688 19.7421872-25.714844s24.121094 5.394532 27.347657 17.410156c3.429687 12.800782-4.167969 25.960938-16.96875 29.390626-2.03125.546874-4.128907.828124-6.230469.832031zm.054687-32c-.703125.003906-1.402344.097656-2.082031.28125-4 1.097656-6.464844 5.105469-5.636719 9.171875.824219 4.0625 4.660156 6.792968 8.773438 6.238281 4.109375-.554687 7.085937-4.199219 6.808594-8.335937-.277344-4.140626-3.714844-7.355469-7.863282-7.355469zm0 0"/><path d="m339.339844 345.972656c-15.445313.105469-30.265625-6.078125-41.058594-17.128906-13.894531-14.855469-25.414062-44.894531-1.382812-103.605469 7.550781-18.472656-.800782-28.59375-12.3125-42.601562-9.933594-12.039063-21.191407-25.742188-21.191407-46.4375 0-39.625 44.410157-80 88-80 43.265625 0 77.65625 30.757812 80 71.542969 1.601563 27.695312-13.601562 194.765624-77.464843 216.046874-4.714844 1.5-9.640626 2.238282-14.589844 2.183594zm12.054687-273.773437c-34.992187 0-72 32.894531-72 64 0 14.957031 8.519531 25.308593 17.542969 36.269531 12.160156 14.769531 25.945312 31.511719 14.761719 58.832031-20.800781 50.863281-12.433594 75.199219-1.734375 86.617188 10.109375 10.28125 24.957031 14.363281 38.902344 10.6875 20.480468-6.824219 39.015624-39.609375 52.191406-92.320313 9.027344-35.183594 13.835937-71.3125 14.335937-107.632812-2.695312-32.957032-30.960937-57.894532-64-56.453125zm0 0"/><path d="m263.394531 80.199219c-17.671875 0-32-14.328125-32-32 0-17.675781 14.328125-32 32-32s32 14.324219 32 32c0 17.671875-14.328125 32-32 32zm0-48c-8.835937 0-16 7.160156-16 16 0 8.835937 7.164063 16 16 16 8.835938 0 16-7.164063 16-16 0-8.839844-7.164062-16-16-16zm0 0"/><path d="m319.394531 48.199219c-13.253906 0-24-10.746094-24-24 0-13.257813 10.746094-24 24-24 13.253907 0 24 10.742187 24 24 0 13.253906-10.746093 24-24 24zm0-32c-4.417969 0-8 3.578125-8 8 0 4.417969 3.582031 8 8 8s8-3.582031 8-8c0-4.421875-3.582031-8-8-8zm0 0"/><path d="m375.394531 48.199219c-13.253906 0-24-10.746094-24-24 0-13.257813 10.746094-24 24-24 13.253907 0 24 10.742187 24 24 0 13.253906-10.746093 24-24 24zm0-32c-4.417969 0-8 3.578125-8 8 0 4.417969 3.582031 8 8 8s8-3.582031 8-8c0-4.421875-3.582031-8-8-8zm0 0"/><path d="m423.394531 72.199219c-13.253906 0-24-10.746094-24-24 0-13.257813 10.746094-24 24-24 13.253907 0 24 10.742187 24 24 0 13.253906-10.746093 24-24 24zm0-32c-4.417969 0-8 3.578125-8 8 0 4.417969 3.582031 8 8 8s8-3.582031 8-8c0-4.421875-3.582031-8-8-8zm0 0"/><path d="m455.394531 120.199219c-13.253906 0-24-10.746094-24-24 0-13.257813 10.746094-24 24-24 13.253907 0 24 10.742187 24 24 0 13.253906-10.746093 24-24 24zm0-32c-4.417969 0-8 3.578125-8 8 0 4.417969 3.582031 8 8 8s8-3.582031 8-8c0-4.421875-3.582031-8-8-8zm0 0"/><path d="m305.972656 150.140625c-3.402344.003906-6.433594-2.140625-7.5625-5.347656-1.125-3.207031-.101562-6.777344 2.554688-8.898438 25.335937-20.300781 59.796875-24.980469 89.628906-12.167969 3.996094 1.78125 5.820312 6.4375 4.097656 10.457032-1.722656 4.019531-6.355468 5.910156-10.402344 4.246094-24.40625-10.492188-52.609374-6.660157-73.335937 9.960937-1.414063 1.128906-3.171875 1.75-4.980469 1.75zm0 0"/><path d="m180.820312 286.140625c-1.816406 0-3.578124-.617187-4.992187-1.75-20.730469-16.609375-48.929687-20.441406-73.335937-9.960937-2.636719 1.175781-5.699219.839843-8.019532-.878907-2.316406-1.714843-3.53125-4.550781-3.179687-7.414062.355469-2.863281 2.226562-5.3125 4.894531-6.410157 29.820312-12.808593 64.273438-8.128906 89.597656 12.167969 2.65625 2.121094 3.679688 5.691407 2.554688 8.898438-1.128906 3.207031-4.160156 5.351562-7.5625 5.347656zm0 0"/></g></svg>