<?xml version="1.0"?><svg width="800" height="600" xmlns="http://www.w3.org/2000/svg">
 <defs>
  <filter y="-0.25" x="-0.25" height="1.5" width="1.5" color-interpolation-filters="sRGB" id="filter4523">
   <feGaussianBlur stdDeviation="10" id="feGaussianBlur4525"/>
   <feGaussianBlur stdDeviation="4,000000" id="feGaussianBlur4539"/>
  </filter>
 </defs>
 <metadata id="metadata7">image/svg+xml</metadata>
 <g>
  <title>Layer 1</title>
  <g id="layer2">
   <path fill="#d92a27" stroke="#ff0000" stroke-width="5" stroke-miterlimit="4" filter="url(#filter4523)" id="path4519" d="m543.446899,452.520966l119.598083,119.598114l58.333313,-58.333313l-119.598083,-119.598114l120.934387,-120.934418l-58.334473,-58.334381l-120.934326,120.934296l-120.972198,-120.972168l-58.333374,58.333313l120.972229,120.97226l-119.596558,119.596527l58.334473,58.334412l119.596527,-119.596527z"/>
   <path fill="#000000" stroke="#000000" stroke-width="1px" id="path3842" d="m312.813599,523.813599l-91.150513,0.005005c-40.10788,0 -72.92038,-25.667908 -72.92038,-64.747803l0,-285.052429c0,-43.331238 32.643723,-67.387268 72.92038,-67.387268l278.423309,0c37.38382,0 66.29129,33.032043 66.29129,67.387268l-1.032043,104.333008l56.347534,-54.357117l-0.072815,-51.08075c0,-67.387268 -55.242676,-120.96991 -121.533966,-120.96991l-278.423279,0c-72.920395,0.000183 -128.163116,54.687683 -128.163116,122.074951l0,285.052368c0,64.747864 55.242722,120.429016 128.163101,120.429016l170.699997,0.661255l-56.347565,-56.347595l-23.201935,0z"/>
  </g>
  <rect transform="rotate(-43.6881103515625 542.5844726562501,391.9790344238282) " id="svg_2" height="102.562666" width="459.812736" y="340.697684" x="312.678096" stroke-width="0" stroke="#000000" fill="#bf0000"/>
  <rect id="svg_3" transform="rotate(-133.22250366210938 547.58447265625,390.9790344238282) " height="102.562666" width="459.812736" y="339.697684" x="317.678096" stroke-width="0" stroke="#000000" fill="#bf0000"/>
 </g>
</svg>