<svg height="484pt" viewBox="-10 0 484 484.46638" width="484pt" xmlns="http://www.w3.org/2000/svg"><path d="m331.640625 30.539062c-6.246094 6.246094-6.246094 16.375 0 22.625l79.199219 79.199219c6.246094 6.246094 16.375 6.246094 22.625 0l22.628906-22.632812-101.824219-101.824219zm0 0" fill="#2488ff"/><path d="m309.015625 121.042969 45.253906-45.253907 33.941407 33.941407-45.253907 45.253906zm0 0" fill="#d1d3d4"/><path d="m297.703125 256.8125-113.136719-113.136719-113.144531 113.136719c-12.496094 12.496094-12.496094 32.757812 0 45.253906l16.976563 16.96875 28.28125 28.289063 45.253906 45.253906c12.5 12.5 32.761718 12.5 45.257812 0l45.253906-45.253906 67.882813-67.890625zm0 0" fill="#ffeb99"/><path d="m309.015625 121.042969-50.914063-50.914063-73.535156 73.546875 113.136719 113.136719 22.625 22.621094 73.542969-73.535156zm0 0" fill="#f1f2f2"/><path d="m193.910156 392.570312c1.976563 1.972657 4.210938 3.667969 6.640625 5.039063-12.53125 7.28125-28.394531 5.210937-38.640625-5.039063l-45.199218-45.28125-28.320313-28.238281-16.960937-16.960937c-12.476563-12.511719-12.476563-32.765625 0-45.277344l113.121093-113.121094 16 16-97.121093 97.121094c-12.476563 12.511719-12.476563 32.765625 0 45.277344l16.960937 16.960937 28.320313 28.238281zm0 0" fill="#ffe477"/><path d="m184.558594 143.6875 73.519531-73.523438 16 16-73.523437 73.523438zm0 0" fill="#e6e7e8"/><path d="m65.765625 341.667969c-6.246094 6.246093-6.246094 16.375 0 22.621093l16.976563 16.96875 11.3125 11.320313 5.65625 5.65625c6.25 6.246094 16.375 6.246094 22.625 0l22.632812-22.632813-28.289062-28.277343-28.28125-28.289063zm0 0" fill="#2488ff"/><path d="m71.421875 369.945312-44.453125 44.464844c-14.695312 14.691406-21.339844 35.601563-17.824219 56.082032l1.03125 5.972656 83.878907-83.886719-11.3125-11.320313zm0 0" fill="#d1d3d4"/><path d="m461.742188 104.074219-101.816407-101.824219c-3.171875-3-8.136719-3-11.3125 0l-22.621093 22.625c-9.375 9.371094-9.375 24.570312 0 33.945312l16.96875 16.964844-33.945313 33.945313-45.257813-45.253907c-3.121093-3.125-8.1875-3.125-11.3125 0l-186.679687 186.679688c-15.59375 15.628906-15.59375 40.933594 0 56.566406l11.320313 11.3125-16.976563 16.976563c-9.371094 9.371093-9.371094 24.570312 0 33.941406l-38.789063 38.800781c-16.519531 16.539063-23.992187 40.058594-20.058593 63.097656l1.035156 5.976563c.503906 2.941406 2.609375 5.355469 5.453125 6.261719 2.851562.90625 5.96875.148437 8.082031-1.96875l78.222657-78.230469c9.375 9.375 24.570312 9.375 33.945312 0l16.96875-16.976563 11.308594 11.320313c15.632812 15.59375 40.9375 15.59375 56.570312 0l113.136719-113.136719 73.535156-73.542968c3.121094-3.125 3.121094-8.1875 0-11.3125l-45.257812-45.253907 33.9375-33.945312 16.976562 16.976562c9.371094 9.367188 24.5625 9.367188 33.933594 0l22.625-22.632812c3.125-3.121094 3.128906-8.1875.007813-11.3125zm-445.511719 355.015625c.15625-14.652344 6.042969-28.664063 16.402343-39.03125l38.789063-38.800782 11.3125 11.320313zm100.457031-66.519532c-3.167969 3.027344-8.152344 3.027344-11.320312 0l-33.945313-33.945312c-1.5-1.5-2.34375-3.535156-2.34375-5.660156 0-2.121094.84375-4.15625 2.34375-5.65625l16.96875-16.96875 45.257813 45.253906zm237.601562-158.398437-16.984374-16.960937c-2.011719-2.078126-4.984376-2.914063-7.78125-2.183594-2.796876.734375-4.980469 2.917968-5.714844 5.714844-.730469 2.796874.101562 5.773437 2.183594 7.78125l16.96875 16.976562-22.632813 22.628906-16.96875-16.972656c-3.125-3.128906-8.191406-3.128906-11.316406-.003906-3.125 3.121094-3.128907 8.1875-.003907 11.3125l16.976563 16.976562-22.625 22.625-16.976563-16.96875c-3.136718-3.03125-8.128906-2.988281-11.214843.097656-3.085938 3.085938-3.128907 8.078126-.097657 11.214844l16.976563 16.96875-22.632813 22.632813-16.972656-16.976563c-3.140625-3.03125-8.128906-2.988281-11.214844.097656-3.085937 3.085938-3.128906 8.074219-.097656 11.214844l16.976563 16.976563-22.632813 22.621093-16.96875-16.964843c-2.007812-2.082031-4.984375-2.914063-7.78125-2.183594s-4.980468 2.917969-5.710937 5.714844c-.734375 2.796875.101562 5.769531 2.179687 7.777343l16.96875 16.96875-5.65625 5.664063c-9.382812 9.351563-24.5625 9.351563-33.945312 0l-90.511719-90.511719c-9.351563-9.382812-9.351563-24.5625 0-33.945312l107.488281-107.476563 84.847656 84.847657c3.140626 3.03125 8.128907 2.988281 11.214844-.097657 3.085938-3.085937 3.128906-8.078125.097656-11.214843l-84.847656-84.847657 62.222656-62.226562 124.457032 124.449219zm-11.328124-90.496094-22.632813-22.632812 33.941406-33.9375 22.625 22.625zm84.847656-16.976562c-3.125 3.121093-8.1875 3.121093-11.3125 0l-79.199219-79.199219c-3.121094-3.125-3.121094-8.183594 0-11.304688l16.972656-16.984374 90.523438 90.519531zm0 0" fill="#231f20"/></svg>